<?xml version="1.0" encoding="iso-8859-1"?>
<!-- Generator: Adobe Illustrator 19.0.0, SVG Export Plug-In . SVG Version: 6.00 Build 0)  -->
<svg version="1.1" id="Layer_1" xmlns="http://www.w3.org/2000/svg" xmlns:xlink="http://www.w3.org/1999/xlink" x="0px" y="0px"
	 viewBox="0 0 512.001 512.001" style="enable-background:new 0 0 512.001 512.001;" xml:space="preserve">
<path style="fill:#B3E38A;" d="M430.204,430.204c-96.21,96.21-252.197,96.21-348.407,0c-96.209-96.209-96.209-252.198,0-348.407
	c96.21-96.21,252.197-96.21,348.407,0C526.413,178.007,526.413,333.995,430.204,430.204z"/>
<path style="fill:#8CC54C;" d="M430.204,430.204c-96.209,96.21-252.197,96.21-348.407,0L430.204,81.797
	C526.413,178.007,526.413,333.995,430.204,430.204z"/>
<path style="fill:#2D6323;" d="M511.428,273.368c-3.071,45.821-18.562,90.119-44.798,128.105
	c-26.232,37.986-62.171,68.159-103.934,87.257c-33.577,15.354-70.146,23.269-106.935,23.27c-7.632,0-15.267-0.339-22.893-1.025
	c-3.415-0.306-6.411-2.405-7.866-5.51c-1.456-3.104-1.152-6.749,0.796-9.57l22.269-32.245c3.025-4.382,9.03-5.481,13.411-2.454
	c4.381,3.025,5.481,9.03,2.454,13.411l-12.484,18.076c1.439,0.027,2.872,0.039,4.309,0.04
	c77.341,0.003,150.637-37.954,195.007-102.205c48.405-70.086,55.357-161.293,18.143-238.03c-2.323-4.791-0.323-10.557,4.468-12.881
	c4.792-2.322,10.557-0.323,12.881,4.468C505.705,184.177,514.41,228.887,511.428,273.368z M260.549,19.319l-9.285,13.444
	c-3.026,4.381-1.928,10.386,2.454,13.411c4.379,3.025,10.385,1.927,13.41-2.454L286.2,16.106c1.949-2.822,2.252-6.466,0.797-9.571
	c-1.455-3.105-4.451-5.202-7.866-5.51c-44.392-3.988-89.284,3.705-129.828,22.245C107.54,42.369,71.599,72.542,45.367,110.528
	C19.132,148.514,3.642,192.811,0.572,238.631c-2.981,44.482,5.724,89.192,25.173,129.294c1.666,3.436,5.103,5.436,8.681,5.436
	c1.411,0,2.845-0.312,4.2-0.968c4.791-2.323,6.791-8.09,4.468-12.881C5.878,282.776,12.828,191.569,61.231,121.485
	C106.424,56.043,181.622,17.883,260.549,19.319z"/>
<path style="fill:#95B8C2;" d="M274.209,344.328h-75.431l-84.116-0.046c-9.435-0.518-17.444-5.56-20.913-12.528
	c-1.185-2.384-1.843-4.995-1.843-7.728V154.335c0-11.168,10.966-20.303,24.362-20.303h143.872c42.618,0,55.908,13.99,106.355,56.245
	c7.358,6.164,13.821,12.917,20.364,18.785c35.635,31.98,40.875,33.156,41.554,63.348c0.158,6.832,0.062,21.897,0.023,31.588
	c-0.023,5.507-0.062,11.824-0.062,20.028c0,10.68-10.029,19.498-22.625,20.251L274.209,344.328z"/>
<path style="fill:#AFD5FF;" d="M167.689,344.311l174.458-174.458c7.147,5.925,15.121,12.698,24.346,20.424
	c7.358,6.164,13.821,12.917,20.364,18.785c35.635,31.98,40.875,33.156,41.554,63.348c0.158,6.832,0.062,21.897,0.023,31.588
	c-0.023,5.507-0.062,11.824-0.062,20.028c0,10.68-10.029,19.498-22.625,20.251l-131.539,0.051h-75.431L167.689,344.311z"/>
<path style="fill:#DC2C13;" d="M428.412,272.41c0.158,6.832,0.062,21.897,0.023,31.588c-0.023,5.507-0.062,11.824-0.062,20.028
	c0,10.68-10.029,19.498-22.625,20.251l-131.539,0.051h-75.431l-84.116-0.046c-9.435-0.518-17.444-5.56-20.913-12.528
	c-1.185-2.384-1.843-4.995-1.843-7.728V154.335c0-11.168,10.966-20.303,24.362-20.303h44.637l42.295,96.56
	c4.256,10.32,10.966,20.302,24.362,20.302h198.124C427.549,256.463,428.201,263.037,428.412,272.41z"/>
<path style="fill:#B21100;" d="M428.4,311.653c-0.016,3.65-0.028,7.698-0.028,12.374c0,10.68-10.029,19.499-22.625,20.251
	l-131.539,0.051h-75.431l-84.116-0.046c-9.435-0.518-17.444-5.56-20.913-12.528c-1.185-2.384-1.843-4.995-1.843-7.728v-12.374H428.4
	z"/>
<path style="fill:#651100;" d="M167.738,240.741c0,5.533-4.484,10.017-10.017,10.017h-16.979c-5.533,0-10.017-4.484-10.017-10.017
	s4.484-10.017,10.017-10.017h16.979C163.254,230.723,167.738,235.209,167.738,240.741z"/>
<path style="fill:#234556;" d="M198.775,344.329c0,23.228-18.828,42.059-42.056,42.059s-42.062-18.829-42.062-42.059
	c0-23.228,18.834-42.06,42.062-42.06S198.775,321.101,198.775,344.329z M363.691,302.27c-23.228,0-42.059,18.832-42.059,42.06
	s18.832,42.059,42.059,42.059c23.227,0,42.056-18.829,42.056-42.059C405.749,321.101,386.92,302.27,363.691,302.27z"/>
<path style="fill:#95B8C2;" d="M166.75,344.329c0,5.533-4.484,10.017-10.017,10.017c-5.533,0-10.032-4.484-10.032-10.017
	c0-5.533,4.47-10.017,10.003-10.017h0.029C162.265,334.312,166.75,338.797,166.75,344.329z M363.705,334.312h-0.028
	c-5.533,0-10.003,4.484-10.003,10.017c0,5.533,4.499,10.017,10.032,10.017c5.533,0,10.017-4.484,10.017-10.017
	C373.723,338.796,369.238,334.312,363.705,334.312z"/>
<g>
</g>
<g>
</g>
<g>
</g>
<g>
</g>
<g>
</g>
<g>
</g>
<g>
</g>
<g>
</g>
<g>
</g>
<g>
</g>
<g>
</g>
<g>
</g>
<g>
</g>
<g>
</g>
<g>
</g>
</svg>
