<?xml version="1.0" encoding="iso-8859-1"?>
<!-- Generator: Adobe Illustrator 19.0.0, SVG Export Plug-In . SVG Version: 6.00 Build 0)  -->
<svg version="1.1" id="Layer_1" xmlns="http://www.w3.org/2000/svg" xmlns:xlink="http://www.w3.org/1999/xlink" x="0px" y="0px"
	 viewBox="0 0 512 512" style="enable-background:new 0 0 512 512;" xml:space="preserve">
<circle style="fill:#273B7A;" cx="256" cy="256" r="256"/>
<path style="fill:#121149;" d="M268.243,511.702c126.512-5.958,228.988-103.741,242.285-228.2L409.679,182.653l-189.306,6.401
	l-58.613-23.847l-48.785,38.752l125.738,125.738l-98.39,54.084L268.243,511.702z"/>
<path style="fill:#FEE187;" d="M357.155,390.522H154.843c-10.516,0-19.042-8.525-19.042-19.042V180.177L256,120.079l120.198,60.099
	v191.304C376.196,381.997,367.671,390.522,357.155,390.522z"/>
<g>
	<path style="fill:#FFC61B;" d="M256,120.079v270.443h101.155c10.516,0,19.042-8.525,19.042-19.041V180.177L256,120.079z"/>
	<polygon style="fill:#FFC61B;" points="135.802,180.177 135.802,207.731 376.196,207.731 376.196,180.177 356.602,170.379 
		155.398,170.379 	"/>
	<rect x="135.809" y="247.087" style="fill:#FFC61B;" width="240.399" height="37.352"/>
	<rect x="135.809" y="323.801" style="fill:#FFC61B;" width="240.399" height="37.352"/>
</g>
<g>
	<polygon style="fill:#EAA22F;" points="376.196,180.177 356.602,170.379 256,170.379 256,207.731 376.196,207.731 	"/>
	<rect x="256" y="247.087" style="fill:#EAA22F;" width="120.191" height="37.352"/>
	<rect x="256" y="323.801" style="fill:#EAA22F;" width="120.191" height="37.352"/>
	<polygon style="fill:#EAA22F;" points="399.022,203.96 255.998,132.449 112.974,203.96 102.319,182.653 255.998,105.813 
		409.678,182.653 	"/>
</g>
<polygon style="fill:#FF5419;" points="409.678,182.653 256,105.813 256,132.449 399.022,203.96 "/>
<rect x="212.04" y="250.88" style="fill:#E09112;" width="87.919" height="139.636"/>
<rect x="256" y="250.88" style="fill:#FF5419;" width="43.96" height="139.636"/>
<g>
</g>
<g>
</g>
<g>
</g>
<g>
</g>
<g>
</g>
<g>
</g>
<g>
</g>
<g>
</g>
<g>
</g>
<g>
</g>
<g>
</g>
<g>
</g>
<g>
</g>
<g>
</g>
<g>
</g>
</svg>
