<?xml version="1.0" encoding="iso-8859-1"?>
<!-- Generator: Adobe Illustrator 19.0.0, SVG Export Plug-In . SVG Version: 6.00 Build 0)  -->
<svg version="1.1" id="Layer_1" xmlns="http://www.w3.org/2000/svg" xmlns:xlink="http://www.w3.org/1999/xlink" x="0px" y="0px"
	 viewBox="0 0 512.004 512.004" style="enable-background:new 0 0 512.004 512.004;" xml:space="preserve">
<g>
	<path style="fill:#6EBEC5;" d="M74.984,74.982c99.973-99.973,262.062-99.973,362.04,0c99.973,99.973,99.973,262.062,0,362.04
		c-99.973,99.973-262.062,99.973-362.04,0C-24.995,337.044-24.995,174.955,74.984,74.982L74.984,74.982z"/>
	<path style="fill:#5EABB2;" d="M437.019,437.017c55.956-55.956,80.568-131.374,73.887-204.467
		c-1.336-0.614-96.855-98.749-96.855-98.749s-61.368-28.723-77.23-28.723c-14.746,0-26.757,11.151-28.396,25.462
		c6.221,5.658,14.106,12.114,21.714,18.324c-1.818,0.707-3.784,1.132-5.852,1.132c-1.69,0-3.297-0.302-4.828-0.783
		c-0.164-0.522-0.358-1.034-0.471-1.582c0.061,0.532,0.23,1.019,0.323,1.541l-0.604-0.169v-2.038l-21.13-21.13h-10.982H274.07
		c-0.671-0.563-1.388-1.055-2.161-1.48c-1.229-2.227-3.052-4.05-5.284-5.284c-2.294-4.157-6.666-7.004-11.75-7.004h-24.356H206.67
		c-7.439,0-13.476,6.031-13.476,13.476v0.297h-15.35l-0.067-0.005l-0.005-0.041v-0.026v0.005v-0.005h-0.63
		c-0.886-0.041-1.766-0.102-2.606-0.282l-0.02-0.005l-1.27-0.394l-0.189-0.614l-0.261-0.968
		c-0.184-0.973-10.865-12.534-10.865-13.558v-0.026v0.005v-0.005h-15.923v47.77l0,0l42.26,36.977v0.44
		c-6.134,1.26-10.747,6.687-10.747,13.194v36.173h-55.521c-7.439,0-13.476,6.031-13.476,13.476v138.24
		c0,5.084,2.847,9.457,7.004,11.75c1.229,2.227,98.14,99.139,100.367,100.367l0.415,0.553
		C294.34,521.046,376.905,497.131,437.019,437.017L437.019,437.017z M339.237,140.011c-1.643,3.958-4.813,7.117-8.776,8.755
		C332.105,144.798,335.274,141.654,339.237,140.011L339.237,140.011z"/>
	<path style="fill:#E46A5D;" d="M246.514,112.071c0,8.689-7.045,15.734-15.734,15.734c-8.689,0-15.734-7.045-15.734-15.734
		s7.045-15.734,15.734-15.734C239.469,96.337,246.514,103.382,246.514,112.071L246.514,112.071z"/>
	<path style="fill:#D45446;" d="M230.775,96.337l-0.256,0.026v31.416l0.256,0.026c8.689,0,15.734-7.045,15.734-15.734
		S239.469,96.337,230.775,96.337L230.775,96.337z"/>
	<path style="fill:#E46A5D;" d="M352.523,396.195c0,7.439-6.031,13.476-13.476,13.476H122.001c-7.439,0-13.476-6.031-13.476-13.476
		v-138.24c0-7.439,6.031-13.476,13.476-13.476h217.047c7.439,0,13.476,6.031,13.476,13.476L352.523,396.195L352.523,396.195z"/>
	<path style="fill:#D45446;" d="M339.048,244.479H230.519v165.187h108.529c7.439,0,13.476-6.031,13.476-13.476V257.95
		C352.523,250.511,346.492,244.479,339.048,244.479z"/>
	<polygon style="fill:#E46A5D;" points="246.514,194.831 215.041,194.831 215.041,155.535 246.514,155.535 	"/>
	<polygon style="fill:#D45446;" points="246.514,194.831 230.775,194.831 230.775,155.535 246.514,155.535 	"/>
	<polygon style="fill:#D95549;" points="230.775,155.535 215.041,155.535 215.041,168.877 230.775,168.877 	"/>
	<polygon style="fill:#C94337;" points="246.514,155.535 230.775,155.535 230.775,168.877 246.514,168.877 	"/>
	<path style="fill:#F1B14F;" d="M268.351,142.064c0,7.439-6.031,13.476-13.476,13.476h-48.2c-7.439,0-13.476-6.031-13.476-13.476
		v-16.517c0-7.439,6.031-13.476,13.476-13.476h48.2c7.439,0,13.476,6.031,13.476,13.476V142.064L268.351,142.064z"/>
	<path style="fill:#FFFFFF;" d="M270.051,194.831h-39.526h-39.526c-7.439,0-13.476,6.031-13.476,13.476v36.173h53.002h53.002
		v-36.173C283.521,200.867,277.49,194.831,270.051,194.831z"/>
	<path style="fill:#CEEAF2;" d="M270.051,194.831h-39.526v49.649h53.002v-36.173C283.521,200.867,277.49,194.831,270.051,194.831z"
		/>
	<path style="fill:#6EA29C;" d="M254.998,112.071L254.998,112.071c4.311,0.036,8.141,2.099,10.578,5.284
		C263.139,114.175,259.314,112.112,254.998,112.071L254.998,112.071z M254.947,112.071L254.947,112.071h0.046l0,0H254.947
		L254.947,112.071z M254.88,112.071h-8.366H254.88h0.051H254.88L254.88,112.071z"/>
	<path style="fill:#5E928D;" d="M254.993,112.071h0.01H254.993L254.993,112.071L254.993,112.071z M254.931,112.071h0.015H254.931
		L254.931,112.071z"/>
	<path style="fill:#5E928D;" d="M263.466,152.447c-2.33,1.93-5.325,3.087-8.586,3.087
		C258.141,155.535,261.132,154.378,263.466,152.447L263.466,152.447z"/>
	<path style="fill:#F0973E;" d="M254.88,112.071h-8.366l0,0h-15.99v43.464h24.356c3.261,0,6.257-1.162,8.586-3.087
		c2.985-2.473,4.89-6.205,4.89-10.383v-16.517c0-3.082-1.034-5.919-2.775-8.187c-2.442-3.185-6.267-5.248-10.578-5.284h-0.01h-0.046
		h-0.015L254.88,112.071L254.88,112.071z"/>
	<path style="fill:#3194B0;" d="M177.855,125.844c-8.796,0-15.923-7.127-15.923-15.923h-15.923v47.77h15.923
		c0-8.796,7.127-15.923,15.923-15.923v-0.041h15.35v-15.882H177.855L177.855,125.844z"/>
	<path style="fill:#2B8199;" d="M146.008,157.69h15.923c0-8.796,7.127-15.923,15.923-15.923v-0.041h15.35v-7.921h-47.196V157.69
		L146.008,157.69z"/>
	<path style="fill:#46929D;" d="M161.947,110.719v0.046V110.719L161.947,110.719z M161.942,110.55l0.005,0.174L161.942,110.55
		L161.942,110.55z M161.942,110.509v0.036V110.509L161.942,110.509z M161.937,110.463v0.031V110.463L161.937,110.463z
		 M161.937,110.417v0.031V110.417L161.937,110.417z M161.937,110.371v0.026V110.371L161.937,110.371z M161.937,110.325v0.026
		V110.325L161.937,110.325z M161.932,110.269v0.031V110.269L161.932,110.269z M161.932,110.212v0.02V110.212L161.932,110.212z
		 M161.932,110.161v0.02V110.161L161.932,110.161z M161.932,110.115v0.02V110.115L161.932,110.115z M161.932,110.064v0.02V110.064
		L161.932,110.064z M161.932,110.018v0.02V110.018L161.932,110.018z M161.932,109.967v0.015V109.967L161.932,109.967z"/>
	<path style="fill:#46929D;" d="M161.952,110.765c0.384,7.281,5.652,13.266,12.59,14.73v-0.01
		C167.604,124.016,162.331,118.041,161.952,110.765L161.952,110.765z"/>
	<path style="fill:#257E9B;" d="M161.932,109.921v23.885h12.611v-8.305c-6.938-1.469-12.206-7.455-12.59-14.73l0,0v-0.046l0,0
		l-0.005-0.174v-0.005v-0.036v-0.015v-0.031v-0.015v-0.031v-0.02v-0.026v-0.026v-0.026v-0.026v-0.031v-0.036v-0.02v-0.031v-0.02
		v-0.031v-0.02v-0.031v-0.02v-0.031v-0.02v-0.031v-0.015L161.932,109.921L161.932,109.921z"/>
	<path style="fill:#46929D;" d="M161.932,157.311v0.015v0.01V157.311L161.932,157.311z M161.937,157.26v0.02V157.26L161.937,157.26z
		 M161.937,157.209v0.026V157.209L161.937,157.209z M161.937,157.163v0.026V157.163L161.937,157.163z M161.942,157.112v0.031
		V157.112L161.942,157.112z M161.942,157.066v0.031V157.066L161.942,157.066z M161.947,156.886l-0.005,0.169L161.947,156.886
		L161.947,156.886z M161.952,156.845v0.041V156.845L161.952,156.845z M174.542,142.11c-6.938,1.469-12.206,7.45-12.59,14.73
		c0.384-7.276,5.652-13.251,12.59-14.72V142.11L174.542,142.11z"/>
	<path style="fill:#46929D;" d="M161.932,157.378v0.015V157.378z"/>
	<path style="fill:#46929D;" d="M161.932,157.424v0.02V157.424z"/>
	<path style="fill:#46929D;" d="M161.932,157.475v0.02V157.475z"/>
	<path style="fill:#46929D;" d="M161.932,157.521v0.02V157.521z"/>
	<path style="fill:#46929D;" d="M161.932,157.572v0.02V157.572z"/>
	<path style="fill:#46929D;" d="M161.932,157.624v0.015V157.624z"/>
	<path style="fill:#206E87;" d="M174.542,133.805h-12.611v23.885v-0.046v-0.015v-0.031v-0.02v-0.031v-0.02v-0.031v-0.02v-0.031
		v-0.02v-0.031v-0.02v-0.036v-0.01v-0.015v-0.031v-0.02v-0.026v-0.026v-0.02v-0.026v-0.02v-0.031v-0.015v-0.031v-0.005l0.005-0.169
		v-0.005v-0.041v-0.005c0.384-7.281,5.652-13.261,12.59-14.73v-8.305H174.542z"/>
	<rect x="268.34" y="125.844" style="fill:#3194B0;" width="29.225" height="15.913"/>
	<rect x="268.34" y="133.785" style="fill:#2B8199;" width="29.225" height="7.956"/>
	<rect x="286.593" y="125.844" style="fill:#FFFFFF;" width="10.982" height="15.913"/>
	<rect x="286.593" y="133.785" style="fill:#CEEAF2;" width="10.982" height="7.956"/>
	<path style="fill:#F1B14F;" d="M414.051,133.805c0,0-61.368-28.723-77.23-28.723c-14.746,0-26.757,11.151-28.396,25.462
		c1.51-7.378,8.038-12.928,15.862-12.928c8.945,0,16.195,7.25,16.195,16.195s-7.25,16.195-16.195,16.195
		c-7.823,0-14.357-5.55-15.862-12.928c1.638,14.31,13.65,25.462,28.396,25.462C352.682,162.529,414.051,133.805,414.051,133.805z"/>
	<path style="fill:#FFFFFF;" d="M230.519,271.308c0,0-28.723,61.368-28.723,77.23c0,14.746,11.151,26.757,25.462,28.395
		c-7.378-1.51-12.928-8.038-12.928-15.862c0-8.945,7.25-16.195,16.195-16.195c8.945,0,16.195,7.25,16.195,16.195
		c0,7.823-5.55,14.357-12.928,15.862c14.31-1.638,25.462-13.65,25.462-28.395C259.247,332.671,230.519,271.308,230.519,271.308z"/>
	<path style="fill:#CEEAF2;" d="M230.519,271.308v73.569c8.945,0,16.195,7.25,16.195,16.195c0,7.823-5.55,14.357-12.928,15.862
		c14.31-1.638,25.462-13.65,25.462-28.395C259.247,332.671,230.519,271.308,230.519,271.308z"/>
	<path style="fill:#FFFFFF;" d="M133.295,321.894c-2.98,0-5.391-2.412-5.391-5.391v-28.554c0-2.98,2.412-5.391,5.391-5.391
		c2.98,0,5.391,2.412,5.391,5.391v28.554C138.687,319.482,136.275,321.894,133.295,321.894z"/>
	<path style="fill:#FFFFFF;" d="M133.295,273.09c-2.98,0-5.391-2.411-5.391-5.391v-1.541c0-2.98,2.412-5.391,5.391-5.391
		c2.98,0,5.391,2.411,5.391,5.391v1.541C138.687,270.678,136.275,273.09,133.295,273.09z"/>
	<rect x="177.517" y="218.332" style="fill:#3194B0;" width="106.004" height="15.191"/>
	<rect x="230.504" y="218.332" style="fill:#2B8199;" width="53.002" height="15.191"/>
</g>
<g>
</g>
<g>
</g>
<g>
</g>
<g>
</g>
<g>
</g>
<g>
</g>
<g>
</g>
<g>
</g>
<g>
</g>
<g>
</g>
<g>
</g>
<g>
</g>
<g>
</g>
<g>
</g>
<g>
</g>
</svg>
