<?xml version="1.0" encoding="iso-8859-1"?>
<!-- Generator: Adobe Illustrator 19.0.0, SVG Export Plug-In . SVG Version: 6.00 Build 0)  -->
<svg version="1.1" id="Layer_1" xmlns="http://www.w3.org/2000/svg" xmlns:xlink="http://www.w3.org/1999/xlink" x="0px" y="0px"
	 viewBox="0 0 512 512" style="enable-background:new 0 0 512 512;" xml:space="preserve">
<path style="fill:#FC7576;" d="M256,362.056c-96.794,0-175.542-78.748-175.542-175.542S159.206,10.971,256,10.971
	S431.542,89.72,431.542,186.514C431.542,283.309,352.794,362.056,256,362.056z"/>
<g>
	<path style="fill:#9AE1D3;" d="M301.863,63.072C287.58,57.764,272.13,54.858,256,54.858c-72.712,0-131.657,58.944-131.657,131.657
		c0,16.13,2.906,31.58,8.215,45.863h32.914L301.863,63.072z"/>
	<path style="fill:#9AE1D3;" d="M349.096,93.418h-32.914L162.904,279.609c23.825,23.826,56.74,38.562,93.096,38.562
		c72.712,0,131.657-58.945,131.657-131.657C387.657,150.158,372.921,117.244,349.096,93.418z"/>
</g>
<path style="fill:#FC7576;" d="M80.458,406.803c0,0,0,24.766,0,49.479c0,24.713,78.593,44.747,175.542,44.747
	s175.542-20.034,175.542-44.747c0-24.712,0-49.479,0-49.479H80.458z"/>
<ellipse style="fill:#FF9690;" cx="255.996" cy="406.808" rx="175.542" ry="44.747"/>
<path style="fill:#FD3B6D;" d="M344.953,395.971c-26.391-4.244-57.149-6.486-88.953-6.486c-31.805,0-62.563,2.243-88.952,6.486
	c-5.319,0.855-9.23,5.445-9.23,10.832c0,5.387,3.911,9.977,9.23,10.832c26.391,4.243,57.15,6.485,88.952,6.485
	c31.801,0,62.56-2.243,88.952-6.485c5.32-0.855,9.23-5.445,9.23-10.832S350.272,396.826,344.953,395.971z"/>
<path style="fill:#FFFFFF;" d="M301.863,63.072L132.559,232.376c6.656,17.909,17.092,33.978,30.347,47.233l186.19-186.191
	C335.841,80.164,319.77,69.729,301.863,63.072z"/>
<g>
	<path style="fill:#000030;" d="M256,43.886c-78.645,0-142.628,63.982-142.628,142.628S177.355,329.142,256,329.142
		c78.646,0,142.628-63.982,142.628-142.628S334.646,43.886,256,43.886z M256,307.199c-66.546,0-120.685-54.139-120.685-120.685
		S189.454,65.828,256,65.828s120.685,54.139,120.685,120.685S322.546,307.199,256,307.199z"/>
	<path style="fill:#000030;" d="M310.277,116.721l-63.365,63.366c-4.284,4.284-4.284,11.231,0.001,15.517
		c2.143,2.142,4.95,3.214,7.758,3.214s5.616-1.072,7.758-3.214l63.366-63.366c4.284-4.284,4.284-11.231,0-15.517
		C321.507,112.437,314.562,112.437,310.277,116.721z"/>
	<path style="fill:#000030;" d="M215.879,211.119l-29.671,29.672c-4.284,4.284-4.284,11.231,0.001,15.517
		c2.143,2.142,4.95,3.214,7.758,3.214s5.616-1.072,7.758-3.214l29.671-29.672c4.284-4.284,4.284-11.231-0.001-15.517
		C227.11,206.836,220.163,206.836,215.879,211.119z"/>
	<path style="fill:#000030;" d="M273.416,91.519c-4.285-4.283-11.23-4.283-15.517,0l-96.895,96.895
		c-4.284,4.284-4.284,11.231,0,15.517c2.143,2.142,4.95,3.214,7.758,3.214s5.616-1.072,7.758-3.214l96.895-96.895
		C277.7,102.75,277.7,95.803,273.416,91.519z"/>
	<path style="fill:#000030;" d="M382.837,364.531c-14.367-3.662-30.707-6.627-48.382-8.832
		c63.753-29.682,108.058-94.352,108.058-169.186C442.514,83.67,358.844,0,256,0S69.486,83.67,69.486,186.514
		c0,74.834,44.306,139.502,108.058,169.186c-17.676,2.206-34.016,5.17-48.382,8.832c-39.598,10.094-59.677,24.316-59.677,42.272
		v49.479c0,17.956,20.078,32.178,59.677,42.272C163.179,507.224,208.224,512,256,512s92.82-4.776,126.837-13.447
		c39.598-10.094,59.677-24.316,59.677-42.272v-49.479C442.514,388.847,422.435,374.625,382.837,364.531z M91.429,186.514
		c0-90.744,73.827-164.571,164.571-164.571s164.571,73.827,164.571,164.571S346.744,351.085,256,351.085
		S91.429,277.258,91.429,186.514z M134.583,385.794c32.297-8.232,75.416-12.766,121.417-12.766s89.122,4.534,121.417,12.766
		c35.475,9.043,43.154,19.023,43.154,21.009s-7.679,11.965-43.154,21.008c-32.295,8.233-75.415,12.766-121.417,12.766
		s-89.122-4.533-121.417-12.766c-35.475-9.043-43.154-19.022-43.154-21.008C91.429,404.817,99.108,394.836,134.583,385.794z
		 M377.417,477.291c-32.295,8.232-75.416,12.766-121.417,12.766s-89.121-4.534-121.417-12.766
		c-35.475-9.043-43.154-19.023-43.154-21.009v-21.075c9.516,5.25,22.095,9.882,37.734,13.869
		c34.016,8.67,79.061,13.445,126.837,13.445s92.82-4.776,126.837-13.445c15.638-3.986,28.218-8.619,37.734-13.869v21.075
		C420.571,458.268,412.892,468.248,377.417,477.291z"/>
	<path style="fill:#000030;" d="M167.048,417.635c26.391,4.243,57.15,6.485,88.952,6.485c31.801,0,62.56-2.243,88.952-6.485
		c5.319-0.855,9.23-5.445,9.23-10.832c0-5.387-3.911-9.977-9.229-10.832c-26.391-4.244-57.149-6.486-88.953-6.486
		s-62.563,2.243-88.952,6.486c-5.319,0.855-9.23,5.445-9.23,10.832C157.818,412.19,161.729,416.78,167.048,417.635z"/>
</g>
<g>
</g>
<g>
</g>
<g>
</g>
<g>
</g>
<g>
</g>
<g>
</g>
<g>
</g>
<g>
</g>
<g>
</g>
<g>
</g>
<g>
</g>
<g>
</g>
<g>
</g>
<g>
</g>
<g>
</g>
</svg>
