<?xml version="1.0" encoding="iso-8859-1"?>
<!-- Generator: Adobe Illustrator 19.0.0, SVG Export Plug-In . SVG Version: 6.00 Build 0)  -->
<svg version="1.1" id="Layer_1" xmlns="http://www.w3.org/2000/svg" xmlns:xlink="http://www.w3.org/1999/xlink" x="0px" y="0px"
	 viewBox="0 0 512 512" style="enable-background:new 0 0 512 512;" xml:space="preserve">
<circle style="fill:#FFC200;" cx="256" cy="256" r="256"/>
<g>
	<path style="fill:#F2B800;" d="M256,0c-6.744,0-13.4,0.34-20,0.852C368.032,11.068,472,121.348,472,256
		S368.032,500.932,236,511.148c6.6,0.512,13.256,0.852,20,0.852c141.392,0,256-114.608,256-256S397.392,0,256,0z"/>
	<path style="fill:#F2B800;" d="M255.952,479.82c-29.984-0.184-60.008-6.728-86.812-18.924
		c-27.368-12.708-51.86-30.704-70.892-52.076c-19.276-21.192-34.592-46.968-44.236-74.492c-9.552-27.9-13.272-57.184-10.78-84.736
		c0.908-10.084,9.22-17.684,19.328-17.684c0.584,0,1.172,0.028,1.756,0.084c9.348,0.844,16.752,8.244,17.592,17.592
		c4.28,46.408,24.42,89.224,56.704,120.552c31.868,31.076,74.108,48.896,115.912,48.896h2.948
		c41.804,0,84.052-17.816,115.896-48.876c32.308-31.42,52.444-74.288,56.708-120.72c0.92-10.06,9.232-17.64,19.32-17.64
		c0.584,0,1.188,0.032,1.78,0.084c9.332,0.856,16.72,8.248,17.564,17.572c2.532,27.752-1.188,56.988-10.748,84.832
		c-9.644,27.564-24.956,53.344-44.296,74.596c-18.972,21.312-43.464,39.312-70.776,51.992c-26.86,12.224-56.88,18.756-86.868,18.944
		c-0.02,0-0.04,0-0.06,0C255.984,479.82,255.972,479.82,255.952,479.82z"/>
</g>
<path style="fill:#F5F5F5;" d="M460.8,250.452c2.448,26.836-1.364,54.98-10.364,81.236c-9.196,26.256-23.656,50.928-42.656,71.812
	c-18.78,21.1-42.292,38.08-68.228,50.116C313.5,465.468,284.748,471.64,256,471.82c-28.752-0.176-57.508-6.356-83.56-18.208
	c-25.924-12.048-49.436-29.02-68.228-50.112c-19-20.884-33.46-45.556-42.656-71.812c-9.008-26.312-12.82-54.252-10.372-81.376
	c0.568-6.284,6.12-10.916,12.412-10.352c5.58,0.504,9.86,4.964,10.344,10.352c4.476,48.424,25.836,93.284,59.1,125.564
	c33.096,32.28,77.736,51.58,122.952,51.148c45.22,0.424,89.852-18.86,122.952-51.14c33.252-32.344,54.608-76.992,59.084-125.712
	c0.584-6.28,6.128-10.9,12.412-10.324c5.572,0.512,9.836,4.94,10.32,10.324L460.8,250.452z"/>
<g>
	<path style="fill:#263740;" d="M169.616,185.584v-26.24c-8.18-2.336-14.18-5.872-18-10.608c-3.816-4.74-5.728-10.488-5.728-17.252
		c0-6.844,2.156-12.592,6.476-17.252c4.316-4.648,10.072-7.336,17.252-8.044V100h9.08v6.2c6.636,0.792,11.916,3.06,15.84,6.792
		c3.916,3.736,6.424,8.732,7.512,14.992l-15.84,2.068c-0.956-4.92-3.464-8.26-7.512-10.016v24.476
		c10.016,2.716,16.84,6.232,20.472,10.552c3.628,4.316,5.44,9.86,5.44,16.62c0,7.556-2.28,13.916-6.852,19.092
		c-4.576,5.176-10.924,8.348-19.068,9.516V212h-9.084v-11.396c-7.22-0.88-13.084-3.572-17.588-8.08s-7.388-10.876-8.636-19.092
		l16.344-1.752c0.664,3.336,1.916,6.22,3.752,8.636C165.316,182.744,167.364,184.496,169.616,185.584z M169.616,119.848
		c-2.46,0.832-4.424,2.252-5.892,4.252c-1.46,2-2.188,4.216-2.188,6.632c0,2.216,0.664,4.268,2,6.168
		c1.336,1.904,3.36,3.432,6.08,4.6V119.848z M178.696,186.456c3.128-0.584,5.676-2.036,7.636-4.352s2.94-5.044,2.94-8.168
		c0-2.796-0.828-5.212-2.472-7.236c-1.648-2.028-4.356-3.584-8.104-4.664V186.456z"/>
	<path style="fill:#263740;" d="M333.616,185.584v-26.24c-8.18-2.336-14.18-5.872-18-10.608c-3.816-4.74-5.728-10.488-5.728-17.252
		c0-6.844,2.156-12.592,6.476-17.252c4.316-4.648,10.072-7.336,17.252-8.044V100h9.08v6.2c6.636,0.792,11.916,3.06,15.84,6.792
		c3.916,3.736,6.424,8.732,7.512,14.992l-15.84,2.068c-0.956-4.92-3.464-8.26-7.512-10.016v24.476
		c10.016,2.716,16.84,6.232,20.472,10.552c3.628,4.316,5.44,9.86,5.44,16.62c0,7.556-2.28,13.916-6.852,19.092
		c-4.576,5.176-10.924,8.348-19.068,9.516V212h-9.084v-11.396c-7.22-0.88-13.084-3.572-17.588-8.08
		c-4.504-4.508-7.388-10.876-8.636-19.092l16.344-1.752c0.664,3.336,1.916,6.22,3.752,8.636
		C329.316,182.744,331.364,184.496,333.616,185.584z M333.616,119.848c-2.46,0.832-4.424,2.252-5.892,4.252
		c-1.46,2-2.188,4.216-2.188,6.632c0,2.216,0.664,4.268,2,6.168c1.336,1.904,3.36,3.432,6.08,4.6V119.848z M342.696,186.456
		c3.128-0.584,5.676-2.036,7.636-4.352c1.956-2.316,2.94-5.044,2.94-8.168c0-2.796-0.828-5.212-2.472-7.236
		c-1.648-2.028-4.356-3.584-8.104-4.664V186.456z"/>
</g>
<g>
</g>
<g>
</g>
<g>
</g>
<g>
</g>
<g>
</g>
<g>
</g>
<g>
</g>
<g>
</g>
<g>
</g>
<g>
</g>
<g>
</g>
<g>
</g>
<g>
</g>
<g>
</g>
<g>
</g>
</svg>
