<?xml version="1.0" encoding="iso-8859-1"?>
<!-- Generator: Adobe Illustrator 16.0.0, SVG Export Plug-In . SVG Version: 6.00 Build 0)  -->
<!DOCTYPE svg PUBLIC "-//W3C//DTD SVG 1.1//EN" "http://www.w3.org/Graphics/SVG/1.1/DTD/svg11.dtd">
<svg version="1.1" id="Capa_1" xmlns="http://www.w3.org/2000/svg" xmlns:xlink="http://www.w3.org/1999/xlink" x="0px" y="0px"
	 width="47.139px" height="47.139px" viewBox="0 0 47.139 47.139" style="enable-background:new 0 0 47.139 47.139;"
	 xml:space="preserve">
<g>
	<g>
		<path d="M23.902,26.911c4.551,0,8.251-4.166,8.251-9.285s-3.7-9.284-8.251-9.284c-4.55,0-8.251,4.165-8.251,9.284
			S19.353,26.911,23.902,26.911z M23.902,9.342c3.998,0,7.251,3.716,7.251,8.284s-3.253,8.285-7.251,8.285
			c-3.999,0-7.251-3.717-7.251-8.285S19.903,9.342,23.902,9.342z"/>
		<path d="M44.201,28.702c-0.267-0.074-0.542,0.082-0.616,0.348c-1.249,4.494-3.976,8.287-7.557,10.933v-9.179
			c0-0.215-0.138-0.406-0.342-0.475l-3.875-1.293c-0.264-0.089-0.545,0.057-0.632,0.316c-0.087,0.262,0.054,0.545,0.316,0.633
			l3.533,1.178v9.199c0,0.098,0.035,0.184,0.083,0.26c-3.12,2.053-6.811,3.258-10.709,3.354V30.804c0-0.276-0.224-0.5-0.5-0.5
			c-0.276,0-0.5,0.224-0.5,0.5v13.171c-3.894-0.097-7.581-1.31-10.7-3.366c0.042-0.072,0.073-0.154,0.073-0.245v-9.198l3.534-1.179
			c0.262-0.088,0.403-0.371,0.316-0.633c-0.087-0.261-0.368-0.405-0.632-0.315l-3.875,1.291c-0.204,0.068-0.342,0.26-0.342,0.475
			v9.146c-3.866-2.863-6.738-7.048-7.82-11.959c-0.06-0.27-0.328-0.439-0.596-0.381c-0.27,0.061-0.44,0.326-0.381,0.596
			c2.144,9.729,10.944,16.791,20.924,16.791c9.592,0,18.082-6.447,20.646-15.679C44.623,29.052,44.467,28.775,44.201,28.702z"/>
		<path d="M44.624,18.841l2.416-3.241c0.165-0.222,0.119-0.535-0.103-0.7c-0.221-0.163-0.534-0.118-0.7,0.103l-1.815,2.438
			c-2.691-9.055-10.977-15.3-20.52-15.3c-9.42,0-17.87,6.301-20.548,15.322c-0.079,0.265,0.072,0.543,0.337,0.622
			c0.266,0.076,0.543-0.073,0.622-0.337C6.867,9.147,14.921,3.142,23.902,3.142c9.077,0,16.96,5.927,19.544,14.525l-2.812-1.204
			c-0.252-0.107-0.547,0.008-0.656,0.264c-0.108,0.253,0.009,0.547,0.264,0.656l3.784,1.62c0.006,0.002,0.012,0.001,0.018,0.003
			c0.057,0.022,0.117,0.037,0.18,0.037l0,0l0,0l0,0c0.039,0,0.08-0.005,0.119-0.015c0.021-0.005,0.035-0.019,0.055-0.025
			c0.025-0.01,0.05-0.02,0.073-0.033c0.011-0.007,0.023-0.01,0.034-0.018c0.032-0.021,0.056-0.05,0.081-0.078
			C44.597,18.86,44.612,18.856,44.624,18.841z"/>
		<path d="M3.222,25.981c-0.03,0.016-0.058,0.031-0.084,0.053c-0.011,0.01-0.024,0.012-0.035,0.021l-2.945,2.769
			c-0.201,0.188-0.211,0.507-0.022,0.707c0.098,0.104,0.231,0.157,0.364,0.157c0.123,0,0.246-0.045,0.342-0.137L3.5,27.054
			l3.114,2.043c0.085,0.056,0.18,0.082,0.274,0.082c0.163,0,0.323-0.079,0.418-0.227c0.151-0.23,0.087-0.541-0.144-0.691
			l-3.443-2.26c-0.012-0.008-0.025-0.008-0.037-0.015c-0.031-0.019-0.063-0.028-0.097-0.039c-0.029-0.008-0.057-0.017-0.086-0.021
			c-0.034-0.004-0.066-0.002-0.1,0.002c-0.031,0.002-0.06,0.007-0.089,0.015C3.279,25.952,3.25,25.966,3.222,25.981z"/>
	</g>
</g>
<g>
</g>
<g>
</g>
<g>
</g>
<g>
</g>
<g>
</g>
<g>
</g>
<g>
</g>
<g>
</g>
<g>
</g>
<g>
</g>
<g>
</g>
<g>
</g>
<g>
</g>
<g>
</g>
<g>
</g>
</svg>
