<?xml version="1.0" encoding="iso-8859-1"?>
<!-- Generator: Adobe Illustrator 16.0.0, SVG Export Plug-In . SVG Version: 6.00 Build 0)  -->
<!DOCTYPE svg PUBLIC "-//W3C//DTD SVG 1.1//EN" "http://www.w3.org/Graphics/SVG/1.1/DTD/svg11.dtd">
<svg version="1.1" id="Capa_1" xmlns="http://www.w3.org/2000/svg" xmlns:xlink="http://www.w3.org/1999/xlink" x="0px" y="0px"
	 width="609.744px" height="609.743px" viewBox="0 0 609.744 609.743" style="enable-background:new 0 0 609.744 609.743;"
	 xml:space="preserve">
<g>
	<g>
		<path d="M608.722,303.853C608.722,136.309,472.414,0,304.87,0C137.33,0,1.021,136.309,1.021,303.853
			c0,146.861,104.738,269.706,243.438,297.795c19.264,5.245,39.507,8.095,60.411,8.095c20.903,0,41.142-2.85,60.405-8.095
			C503.98,573.559,608.722,450.714,608.722,303.853z M78.994,424.26c-19.221-35.912-30.16-76.902-30.16-120.402
			c0-141.181,114.855-256.041,256.036-256.041s256.04,114.855,256.04,256.041c0,43.509-10.939,84.5-30.164,120.416
			c2.873-14.501,4.408-29.477,4.408-44.81c0-126.98-103.305-230.284-230.284-230.284c-126.98,0-230.284,103.304-230.284,230.284
			C74.585,394.788,76.125,409.758,78.994,424.26z M304.87,559.387c-46.899,0-85.054-38.154-85.054-85.059
			c0-46.898,38.154-85.053,85.054-85.053c46.903,0,85.058,38.154,85.058,85.053C389.927,521.228,351.773,559.387,304.87,559.387z
			 M433.08,509.155c3.021-11.106,4.66-22.778,4.66-34.826c0-73.264-59.607-132.866-132.87-132.866
			c-73.263,0-132.866,59.598-132.866,132.865c0,12.054,1.645,23.725,4.662,34.832c-33.479-33.101-54.267-79.011-54.267-129.696
			c0-100.617,81.855-182.472,182.472-182.472c100.616,0,182.472,81.855,182.472,182.472
			C487.341,430.146,466.556,476.055,433.08,509.155z"/>
	</g>
</g>
<g>
</g>
<g>
</g>
<g>
</g>
<g>
</g>
<g>
</g>
<g>
</g>
<g>
</g>
<g>
</g>
<g>
</g>
<g>
</g>
<g>
</g>
<g>
</g>
<g>
</g>
<g>
</g>
<g>
</g>
</svg>
