<?xml version="1.0" encoding="iso-8859-1"?>
<!-- Generator: Adobe Illustrator 19.0.0, SVG Export Plug-In . SVG Version: 6.00 Build 0)  -->
<svg version="1.1" id="Layer_1" xmlns="http://www.w3.org/2000/svg" xmlns:xlink="http://www.w3.org/1999/xlink" x="0px" y="0px"
	 viewBox="0 0 512 512" style="enable-background:new 0 0 512 512;" xml:space="preserve">
<polygon style="fill:#BDD169;" points="434.934,493.758 501.801,426.891 501.801,284.242 434.934,217.601 77.066,217.601 
	10.199,284.242 10.199,426.891 77.066,493.758 "/>
<circle style="fill:#E6E6E6;" cx="256" cy="355.564" r="75.336"/>
<g>
	<polygon style="fill:#FFD890;" points="501.801,493.758 501.801,426.891 434.934,493.758 	"/>
	<polygon style="fill:#FFD890;" points="434.934,217.601 501.801,284.242 501.801,217.601 	"/>
	<polygon style="fill:#FFD890;" points="10.199,493.758 10.199,426.891 77.066,493.758 	"/>
	<polygon style="fill:#FFD890;" points="77.066,217.601 10.199,284.242 10.199,217.601 	"/>
</g>
<polygon style="fill:#BDD169;" points="501.801,217.601 434.934,151.072 77.066,151.072 10.199,217.601 "/>
<g>
	<polygon style="fill:#FFD890;" points="434.934,151.072 501.801,217.601 501.801,151.072 	"/>
	<polygon style="fill:#FFD890;" points="77.066,151.072 10.199,217.601 10.199,151.072 	"/>
</g>
<polygon style="fill:#BDD169;" points="501.801,151.072 434.934,84.635 77.066,84.635 10.199,151.072 "/>
<g>
	<polygon style="fill:#FFD890;" points="434.934,84.635 501.801,151.072 501.801,84.635 	"/>
	<polygon style="fill:#FFD890;" points="77.066,84.635 10.199,151.072 10.199,84.635 	"/>
</g>
<polygon style="fill:#BDD169;" points="501.801,84.635 434.934,18.242 77.066,18.242 10.199,84.635 "/>
<g>
	<polygon style="fill:#FFD890;" points="434.934,18.242 501.801,84.635 501.801,18.242 	"/>
	<polygon style="fill:#FFD890;" points="77.066,18.242 10.199,84.635 10.199,18.242 	"/>
</g>
<g>
	<path style="fill:#4C1D1D;" d="M256,270.031c-47.165,0-85.536,38.371-85.536,85.536s38.371,85.536,85.536,85.536
		s85.536-38.371,85.536-85.536S303.164,270.031,256,270.031z M256,420.703c-35.916,0-65.137-29.22-65.137-65.137
		s29.221-65.137,65.137-65.137c35.918,0,65.137,29.22,65.137,65.137S291.918,420.703,256,420.703z"/>
	<path style="fill:#4C1D1D;" d="M261.321,344.424V327.04c7.74,0.595,10.002,4.405,13.931,4.405c5.239,0,7.382-6.549,7.382-9.764
		c0-8.216-13.931-10.121-21.313-10.359v-2.976c0-1.668-2.262-3.215-4.523-3.215c-2.619,0-4.525,1.548-4.525,3.215v3.334
		c-12.622,1.786-23.814,9.05-23.814,24.171c0,15.241,12.86,20.362,23.814,24.529v19.289c-8.812-1.548-12.859-8.572-17.861-8.572
		c-4.525,0-8.097,5.953-8.097,10.002c0,7.621,11.669,15.003,25.958,15.479v2.977c0,1.667,1.905,3.214,4.525,3.214
		c2.261,0,4.523-1.548,4.523-3.214v-3.453c13.931-2.263,23.457-11.194,23.457-25.957
		C284.778,354.069,272.157,348.473,261.321,344.424z M253.462,341.567c-4.524-1.904-7.621-4.048-7.621-7.501
		c0-2.858,2.263-5.596,7.621-6.668V341.567z M260.131,379.551v-15.956c4.287,2.024,7.263,4.524,7.263,8.453
		C267.394,376.335,264.18,378.597,260.131,379.551z"/>
	<path style="fill:#4C1D1D;" d="M10.199,8.043C4.566,8.043,0,12.61,0,18.242v475.516c0,5.632,4.566,10.199,10.199,10.199h491.602
		c5.632,0,10.199-4.567,10.199-10.199V18.242c0-5.632-4.567-10.199-10.199-10.199C501.801,8.043,10.199,8.043,10.199,8.043z
		 M81.275,161.271h349.449l46.364,46.13H34.911L81.275,161.271z M477.053,74.434H34.948L81.27,28.44h349.46L477.053,74.434z
		 M20.398,193.065v-31.794h31.956L20.398,193.065z M20.398,94.833h31.933L20.398,126.56V94.833z M34.934,140.873l46.337-46.04
		h349.457l46.337,46.04H34.934z M491.602,193.065l-31.955-31.794h31.955V193.065z M491.602,126.56l-31.933-31.727h31.933V126.56z
		 M20.398,259.676v-31.878h31.986L20.398,259.676z M459.617,227.8h31.985v31.878L459.617,227.8z M491.602,60.134l-31.546-31.322
		l-0.374-0.371h31.92V60.134z M20.398,60.134V28.441h31.92L20.398,60.134z M20.398,451.514l32.045,32.044H20.398V451.514z
		 M430.709,483.558H81.291l-60.892-60.892V288.477L81.281,227.8h349.438l60.883,60.677v134.189L430.709,483.558z M491.602,483.558
		h-32.044l32.044-32.044V483.558z"/>
	<path style="fill:#4C1D1D;" d="M457.954,322.187h-4.866c-5.632,0-10.199,4.567-10.199,10.199c0,5.632,4.567,10.199,10.199,10.199
		h4.866c5.632,0,10.199-4.567,10.199-10.199C468.154,326.754,463.586,322.187,457.954,322.187z"/>
	<path style="fill:#4C1D1D;" d="M375.93,342.586h37.446c5.632,0,10.199-4.567,10.199-10.199c0-5.632-4.567-10.199-10.199-10.199
		H375.93c-5.632,0-10.199,4.567-10.199,10.199C365.731,338.018,370.297,342.586,375.93,342.586z"/>
	<path style="fill:#4C1D1D;" d="M457.954,368.548H375.93c-5.632,0-10.199,4.567-10.199,10.199c0,5.632,4.567,10.199,10.199,10.199
		h82.024c5.632,0,10.199-4.567,10.199-10.199C468.154,373.115,463.586,368.548,457.954,368.548z"/>
	<path style="fill:#4C1D1D;" d="M138.332,322.187H56.309c-5.633,0-10.199,4.567-10.199,10.199c0,5.632,4.566,10.199,10.199,10.199
		h82.023c5.633,0,10.199-4.567,10.199-10.199C148.531,326.754,143.965,322.187,138.332,322.187z"/>
	<path style="fill:#4C1D1D;" d="M138.332,368.548H56.309c-5.633,0-10.199,4.567-10.199,10.199c0,5.632,4.566,10.199,10.199,10.199
		h82.023c5.633,0,10.199-4.567,10.199-10.199C148.531,373.115,143.965,368.548,138.332,368.548z"/>
</g>
<g>
</g>
<g>
</g>
<g>
</g>
<g>
</g>
<g>
</g>
<g>
</g>
<g>
</g>
<g>
</g>
<g>
</g>
<g>
</g>
<g>
</g>
<g>
</g>
<g>
</g>
<g>
</g>
<g>
</g>
</svg>
