<?xml version="1.0" encoding="iso-8859-1"?>
<!-- Generator: Adobe Illustrator 19.0.0, SVG Export Plug-In . SVG Version: 6.00 Build 0)  -->
<svg version="1.1" id="Layer_1" xmlns="http://www.w3.org/2000/svg" xmlns:xlink="http://www.w3.org/1999/xlink" x="0px" y="0px"
	 viewBox="0 0 512 512" style="enable-background:new 0 0 512 512;" xml:space="preserve">
<circle style="fill:#E6F3FF;" cx="256" cy="256" r="256"/>
<path style="fill:#CFDBE6;" d="M261.015,511.936c111.557-2.145,205.627-75.643,238.485-176.757L275.54,111.218l-28.877,23.678
	l-13.495,13.946l93.193,93.193l-225.728,82.239l82.029,82.029l-15.781,11.498L261.015,511.936z"/>
<path style="fill:#FF6472;" d="M293.812,177.304h-73.487c-47.99,0-88.797,30.679-103.931,73.487h-15.762v73.487h15.762
	c9.018,25.507,27.153,46.702,50.488,59.673v33.856h46.764v-20.263c2.212,0.133,4.436,0.221,6.68,0.221h73.487v20.042h46.764v-30.448
	c37.492-17.594,63.466-55.667,63.466-99.823l0,0C404.042,226.656,354.69,177.304,293.812,177.304z"/>
<path style="fill:#C75163;" d="M293.812,177.305h-37.81v220.457h37.81v20.042h46.764v-30.448
	c37.492-17.594,63.466-55.667,63.466-99.823l0,0C404.042,226.656,354.69,177.305,293.812,177.305z"/>
<circle style="fill:#804000;" cx="165.219" cy="269.153" r="10.021"/>
<path style="fill:#C75163;" d="M183.584,226.295v-73.487c0,0,66.805,22.268,73.487,73.487H183.584z"/>
<circle style="fill:#F9B54C;" cx="256" cy="131.879" r="28.444"/>
<path style="fill:#F4A200;" d="M284.446,131.879c0-15.71-12.734-28.444-28.444-28.444v56.889
	C271.712,160.323,284.446,147.589,284.446,131.879z"/>
<g>
</g>
<g>
</g>
<g>
</g>
<g>
</g>
<g>
</g>
<g>
</g>
<g>
</g>
<g>
</g>
<g>
</g>
<g>
</g>
<g>
</g>
<g>
</g>
<g>
</g>
<g>
</g>
<g>
</g>
</svg>
