<?xml version="1.0" encoding="iso-8859-1"?>
<!-- Generator: Adobe Illustrator 18.0.0, SVG Export Plug-In . SVG Version: 6.00 Build 0)  -->
<!DOCTYPE svg PUBLIC "-//W3C//DTD SVG 1.1//EN" "http://www.w3.org/Graphics/SVG/1.1/DTD/svg11.dtd">
<svg version="1.1" id="Capa_1" xmlns="http://www.w3.org/2000/svg" xmlns:xlink="http://www.w3.org/1999/xlink" x="0px" y="0px"
	 viewBox="0 0 135.001 135.001" style="enable-background:new 0 0 135.001 135.001;" xml:space="preserve">
<g>
	<circle style="fill:#FEC820;" cx="67.501" cy="67.501" r="67.5"/>
	<g>
		<g>
			<path style="fill-rule:evenodd;clip-rule:evenodd;fill:#2EBCEE;" d="M28.123,59.319l56.286-20.281
				c1.391-0.5,2.937,0.226,3.438,1.615l12.096,33.57c0.501,1.389-0.227,2.936-1.617,3.438L42.04,97.942
				c-1.391,0.5-2.937-0.227-3.438-1.617L26.505,62.757C26.004,61.368,26.733,59.821,28.123,59.319z"/>
			<path style="fill-rule:evenodd;clip-rule:evenodd;fill:#4E5156;" d="M29.645,60.776L84.167,41.13
				c0.894-0.32,1.888,0.146,2.209,1.041l11.468,31.822c0.322,0.895-0.145,1.887-1.039,2.211L42.283,95.849
				c-0.893,0.324-1.888-0.146-2.211-1.037L28.605,62.987C28.283,62.093,28.752,61.099,29.645,60.776z"/>
			
				<rect x="32.847" y="70.031" transform="matrix(-0.9408 0.339 -0.339 -0.9408 152.3293 122.7187)" style="fill-rule:evenodd;clip-rule:evenodd;fill:#2EBCEE;" width="65.201" height="9.261"/>
		</g>
		<g>
			<path style="fill-rule:evenodd;clip-rule:evenodd;fill:#4E5156;" d="M42.04,56.888h59.829c1.479,0,2.687,1.209,2.687,2.686
				v35.684c0,1.477-1.208,2.686-2.687,2.686H42.04c-1.478,0-2.686-1.209-2.686-2.686V59.573
				C39.354,58.097,40.562,56.888,42.04,56.888z"/>
			<path style="fill-rule:evenodd;clip-rule:evenodd;fill:#2EBCEE;" d="M42.978,58.776h57.954c0.948,0,1.727,0.777,1.727,1.726
				v33.826c0,0.949-0.778,1.727-1.727,1.727H42.978c-0.95,0-1.727-0.777-1.727-1.727V60.503
				C41.251,59.554,42.028,58.776,42.978,58.776z"/>
			<path style="fill-rule:evenodd;clip-rule:evenodd;fill:#2EA7EE;" d="M72.21,58.776H42.978c-0.95,0-1.727,0.777-1.727,1.726
				v33.826c0,0.949,0.777,1.727,1.727,1.727H72.21V58.776z"/>
			<g>
				<g>
					<path style="fill:#4E5156;" d="M46.694,64.997h0.844v2.408c0,0.178-0.031,0.336-0.094,0.479
						c-0.063,0.141-0.148,0.262-0.257,0.361c-0.109,0.1-0.237,0.178-0.384,0.23c-0.147,0.055-0.306,0.08-0.476,0.08
						c-0.177,0-0.339-0.021-0.487-0.066c-0.148-0.043-0.275-0.111-0.382-0.201c-0.107-0.092-0.19-0.207-0.251-0.346
						c-0.06-0.139-0.09-0.305-0.09-0.496h0.849c0,0.09,0.008,0.166,0.024,0.225s0.04,0.105,0.07,0.139
						c0.031,0.035,0.068,0.059,0.113,0.074c0.045,0.014,0.097,0.021,0.155,0.021c0.117,0,0.208-0.043,0.271-0.131
						s0.095-0.211,0.095-0.369V64.997z"/>
					<path style="fill:#4E5156;" d="M51.045,66.825c0,0.268-0.038,0.51-0.113,0.723c-0.076,0.215-0.181,0.396-0.317,0.545
						c-0.136,0.15-0.297,0.266-0.485,0.344c-0.187,0.08-0.393,0.119-0.616,0.119c-0.227,0-0.435-0.039-0.624-0.119
						c-0.189-0.078-0.351-0.193-0.487-0.344c-0.136-0.148-0.242-0.33-0.317-0.545c-0.076-0.213-0.113-0.455-0.113-0.723v-0.143
						c0-0.27,0.037-0.51,0.112-0.725c0.075-0.213,0.18-0.395,0.316-0.545c0.136-0.148,0.298-0.264,0.486-0.344
						s0.396-0.121,0.622-0.121c0.224,0,0.43,0.041,0.618,0.121s0.35,0.195,0.486,0.344c0.136,0.15,0.242,0.332,0.318,0.545
						c0.077,0.215,0.115,0.455,0.115,0.725V66.825z M50.185,66.677c0-0.348-0.059-0.613-0.175-0.793
						c-0.116-0.182-0.283-0.271-0.5-0.271c-0.227,0-0.396,0.09-0.507,0.271c-0.112,0.18-0.168,0.445-0.168,0.793v0.148
						c0,0.344,0.057,0.607,0.171,0.793s0.284,0.277,0.509,0.277c0.216,0,0.381-0.092,0.497-0.275
						c0.116-0.186,0.174-0.449,0.174-0.795V66.677z"/>
					<path style="fill:#4E5156;" d="M54.417,68.509h-0.842v-1.467h-1.247v1.467h-0.847v-3.512h0.847v1.393h1.247v-1.393h0.842
						V68.509z"/>
					<path style="fill:#4E5156;" d="M57.886,68.509h-0.842l-1.245-2.186v2.186h-0.847v-3.512h0.847l1.242,2.186v-2.186h0.844V68.509
						z"/>
					<path style="fill:#4E5156;" d="M61.462,67.575c0-0.055-0.008-0.104-0.023-0.148s-0.045-0.086-0.09-0.125
						s-0.108-0.078-0.189-0.117s-0.188-0.08-0.319-0.123c-0.154-0.053-0.303-0.109-0.446-0.174s-0.27-0.141-0.381-0.229
						c-0.111-0.09-0.2-0.193-0.267-0.311c-0.066-0.119-0.1-0.256-0.1-0.414c0-0.15,0.034-0.287,0.102-0.408s0.162-0.225,0.282-0.311
						s0.263-0.15,0.428-0.197c0.165-0.047,0.344-0.07,0.539-0.07c0.191,0,0.367,0.025,0.528,0.078
						c0.161,0.051,0.299,0.123,0.415,0.219c0.116,0.094,0.207,0.209,0.271,0.344s0.098,0.283,0.098,0.449h-0.844
						c0-0.066-0.01-0.127-0.03-0.182s-0.05-0.104-0.091-0.143s-0.092-0.07-0.152-0.092c-0.06-0.023-0.131-0.035-0.213-0.035
						c-0.08,0-0.151,0.01-0.212,0.027c-0.062,0.02-0.112,0.045-0.153,0.078s-0.072,0.07-0.093,0.113
						c-0.021,0.043-0.032,0.088-0.032,0.137c0,0.053,0.015,0.1,0.045,0.143s0.072,0.084,0.128,0.121
						c0.055,0.037,0.123,0.072,0.203,0.105s0.169,0.066,0.269,0.098c0.187,0.061,0.353,0.127,0.5,0.199s0.27,0.154,0.37,0.248
						s0.177,0.199,0.229,0.316s0.079,0.25,0.079,0.396c0,0.158-0.031,0.299-0.093,0.422s-0.149,0.227-0.263,0.311
						c-0.113,0.082-0.25,0.146-0.41,0.189c-0.16,0.043-0.338,0.064-0.535,0.064c-0.121,0-0.24-0.01-0.359-0.029
						c-0.119-0.02-0.232-0.051-0.341-0.094c-0.108-0.041-0.209-0.094-0.304-0.156c-0.094-0.064-0.175-0.141-0.244-0.229
						s-0.122-0.189-0.162-0.301c-0.04-0.113-0.059-0.238-0.059-0.377h0.849c0,0.104,0.014,0.189,0.041,0.26
						c0.027,0.068,0.067,0.125,0.121,0.17c0.053,0.043,0.118,0.074,0.194,0.092c0.076,0.02,0.164,0.027,0.264,0.027
						c0.081,0,0.149-0.008,0.207-0.027c0.057-0.018,0.104-0.043,0.141-0.074c0.037-0.031,0.064-0.068,0.081-0.109
						C61.454,67.665,61.462,67.622,61.462,67.575z"/>
					<path style="fill:#4E5156;" d="M63.855,64.997l0.784,2.443l0.781-2.443h1.115v3.512h-0.849v-0.82l0.082-1.68l-0.849,2.5h-0.56
						l-0.852-2.502l0.082,1.682v0.82h-0.847v-3.512H63.855z"/>
					<path style="fill:#4E5156;" d="M67.974,68.509h-0.843v-3.512h0.843V68.509z"/>
					<path style="fill:#4E5156;" d="M71.251,65.649h-1.055v2.859h-0.847v-2.859h-1.034v-0.652h2.936V65.649z"/>
					<path style="fill:#4E5156;" d="M74.543,68.509h-0.842v-1.467h-1.247v1.467h-0.847v-3.512h0.847v1.393h1.247v-1.393h0.842
						V68.509z"/>
				</g>
			</g>
			<path style="fill-rule:evenodd;clip-rule:evenodd;fill:#FEC820;" d="M46.133,73.097h14.083c0.389,0,0.704,0.316,0.704,0.703
				l0.399,9.348c0,0.389-0.715,0.705-1.104,0.705H46.133c-0.388,0-0.703-0.316-0.703-0.705V73.8
				C45.43,73.413,45.746,73.097,46.133,73.097z"/>
			<g>
				<g>
					<path style="fill:#4E5156;" d="M46.304,92.235h-0.807v-2.568l-0.792,0.232v-0.611l1.524-0.527h0.074V92.235z"/>
					<path style="fill:#4E5156;" d="M49.775,92.235h-2.424V91.71l1.116-1.174c0.148-0.168,0.254-0.313,0.317-0.434
						c0.064-0.119,0.096-0.225,0.096-0.313c0-0.15-0.033-0.264-0.098-0.342c-0.065-0.078-0.16-0.117-0.284-0.117
						c-0.062,0-0.119,0.014-0.169,0.043c-0.051,0.027-0.094,0.066-0.13,0.115s-0.064,0.107-0.083,0.172
						c-0.02,0.066-0.03,0.139-0.03,0.217H47.28c0-0.16,0.03-0.309,0.089-0.451c0.06-0.141,0.144-0.266,0.253-0.371
						c0.109-0.107,0.24-0.191,0.392-0.252c0.152-0.063,0.32-0.092,0.504-0.092c0.192,0,0.361,0.021,0.507,0.066
						c0.146,0.047,0.268,0.111,0.366,0.197s0.173,0.191,0.223,0.316c0.05,0.125,0.075,0.268,0.075,0.426
						c0,0.121-0.019,0.236-0.057,0.348c-0.038,0.109-0.093,0.221-0.165,0.33c-0.072,0.109-0.159,0.223-0.263,0.336
						c-0.104,0.115-0.219,0.236-0.348,0.365l-0.449,0.518h1.367V92.235z"/>
					<path style="fill:#4E5156;" d="M50.229,90.536l0.212-1.775h2.03v0.625h-1.376l-0.079,0.689c0.019-0.01,0.045-0.023,0.079-0.037
						c0.034-0.016,0.072-0.029,0.117-0.043c0.044-0.014,0.092-0.023,0.143-0.033c0.051-0.008,0.104-0.012,0.16-0.012
						c0.172,0,0.325,0.025,0.458,0.076c0.134,0.053,0.246,0.127,0.336,0.227s0.16,0.223,0.208,0.367s0.072,0.311,0.072,0.496
						c0,0.148-0.024,0.295-0.073,0.434c-0.049,0.141-0.122,0.266-0.221,0.373c-0.099,0.109-0.224,0.197-0.375,0.262
						c-0.151,0.064-0.33,0.098-0.537,0.098c-0.156,0-0.307-0.023-0.454-0.07c-0.147-0.049-0.278-0.117-0.393-0.207
						c-0.115-0.09-0.206-0.199-0.274-0.326s-0.102-0.271-0.1-0.432h0.806c0.008,0.127,0.049,0.229,0.122,0.303
						c0.073,0.074,0.169,0.113,0.289,0.113c0.079,0,0.146-0.018,0.198-0.049c0.053-0.031,0.094-0.074,0.125-0.129
						c0.031-0.057,0.052-0.119,0.064-0.193c0.012-0.072,0.018-0.15,0.018-0.23c0-0.086-0.009-0.164-0.028-0.232
						c-0.02-0.068-0.049-0.125-0.088-0.174c-0.04-0.047-0.091-0.084-0.154-0.111c-0.063-0.025-0.138-0.039-0.226-0.039
						c-0.057,0-0.108,0.006-0.154,0.018c-0.045,0.01-0.085,0.025-0.12,0.043c-0.034,0.018-0.063,0.037-0.087,0.059
						s-0.043,0.041-0.06,0.063L50.229,90.536z"/>
					<path style="fill:#4E5156;" d="M55.424,89.19l-1.298,3.045h-0.849l1.3-2.854h-1.656v-0.621h2.502V89.19z"/>
					<path style="fill:#4E5156;" d="M59.48,92.235h-2.424V91.71l1.116-1.174c0.148-0.168,0.254-0.313,0.317-0.434
						c0.064-0.119,0.096-0.225,0.096-0.313c0-0.15-0.033-0.264-0.098-0.342c-0.065-0.078-0.16-0.117-0.284-0.117
						c-0.062,0-0.119,0.014-0.169,0.043c-0.051,0.027-0.094,0.066-0.13,0.115s-0.064,0.107-0.083,0.172
						c-0.02,0.066-0.03,0.139-0.03,0.217h-0.807c0-0.16,0.03-0.309,0.089-0.451c0.06-0.141,0.144-0.266,0.253-0.371
						c0.109-0.107,0.24-0.191,0.392-0.252c0.152-0.063,0.32-0.092,0.504-0.092c0.192,0,0.361,0.021,0.507,0.066
						c0.146,0.047,0.268,0.111,0.366,0.197s0.173,0.191,0.223,0.316c0.05,0.125,0.075,0.268,0.075,0.426
						c0,0.121-0.019,0.236-0.057,0.348c-0.038,0.109-0.093,0.221-0.165,0.33c-0.072,0.109-0.159,0.223-0.263,0.336
						c-0.104,0.115-0.219,0.236-0.348,0.365l-0.449,0.518h1.367V92.235z"/>
					<path style="fill:#4E5156;" d="M59.934,90.536l0.212-1.775h2.03v0.625H60.8l-0.079,0.689c0.019-0.01,0.045-0.023,0.079-0.037
						c0.034-0.016,0.072-0.029,0.117-0.043c0.044-0.014,0.092-0.023,0.143-0.033c0.051-0.008,0.104-0.012,0.16-0.012
						c0.172,0,0.325,0.025,0.458,0.076c0.134,0.053,0.246,0.127,0.336,0.227s0.16,0.223,0.208,0.367s0.072,0.311,0.072,0.496
						c0,0.148-0.024,0.295-0.073,0.434c-0.049,0.141-0.122,0.266-0.221,0.373c-0.099,0.109-0.224,0.197-0.375,0.262
						c-0.151,0.064-0.33,0.098-0.537,0.098c-0.156,0-0.307-0.023-0.454-0.07c-0.147-0.049-0.278-0.117-0.393-0.207
						c-0.115-0.09-0.206-0.199-0.274-0.326s-0.102-0.271-0.1-0.432h0.806c0.008,0.127,0.049,0.229,0.122,0.303
						c0.073,0.074,0.169,0.113,0.289,0.113c0.079,0,0.146-0.018,0.198-0.049c0.053-0.031,0.094-0.074,0.125-0.129
						c0.031-0.057,0.052-0.119,0.064-0.193c0.012-0.072,0.018-0.15,0.018-0.23c0-0.086-0.009-0.164-0.028-0.232
						c-0.02-0.068-0.049-0.125-0.088-0.174c-0.04-0.047-0.091-0.084-0.154-0.111c-0.063-0.025-0.138-0.039-0.226-0.039
						c-0.057,0-0.108,0.006-0.154,0.018c-0.045,0.01-0.085,0.025-0.12,0.043c-0.034,0.018-0.063,0.037-0.087,0.059
						s-0.043,0.041-0.06,0.063L59.934,90.536z"/>
					<path style="fill:#4E5156;" d="M65.139,92.235h-2.424V91.71l1.116-1.174c0.148-0.168,0.254-0.313,0.317-0.434
						c0.064-0.119,0.096-0.225,0.096-0.313c0-0.15-0.033-0.264-0.098-0.342c-0.065-0.078-0.16-0.117-0.284-0.117
						c-0.062,0-0.119,0.014-0.169,0.043c-0.051,0.027-0.094,0.066-0.13,0.115s-0.064,0.107-0.083,0.172
						c-0.02,0.066-0.03,0.139-0.03,0.217h-0.807c0-0.16,0.03-0.309,0.089-0.451c0.06-0.141,0.144-0.266,0.253-0.371
						c0.109-0.107,0.24-0.191,0.392-0.252c0.152-0.063,0.32-0.092,0.504-0.092c0.192,0,0.361,0.021,0.507,0.066
						c0.146,0.047,0.268,0.111,0.366,0.197s0.173,0.191,0.223,0.316c0.05,0.125,0.075,0.268,0.075,0.426
						c0,0.121-0.019,0.236-0.057,0.348c-0.038,0.109-0.093,0.221-0.165,0.33c-0.072,0.109-0.159,0.223-0.263,0.336
						c-0.104,0.115-0.219,0.236-0.348,0.365l-0.449,0.518h1.367V92.235z"/>
					<path style="fill:#4E5156;" d="M65.593,90.536l0.212-1.775h2.031v0.625h-1.377l-0.079,0.689
						c0.019-0.01,0.045-0.023,0.079-0.037c0.034-0.016,0.072-0.029,0.117-0.043c0.044-0.014,0.092-0.023,0.143-0.033
						c0.051-0.008,0.104-0.012,0.16-0.012c0.172,0,0.325,0.025,0.458,0.076c0.134,0.053,0.245,0.127,0.337,0.227
						c0.09,0.1,0.159,0.223,0.207,0.367s0.072,0.311,0.072,0.496c0,0.148-0.025,0.295-0.073,0.434
						c-0.049,0.141-0.122,0.266-0.221,0.373c-0.099,0.109-0.224,0.197-0.375,0.262c-0.151,0.064-0.33,0.098-0.537,0.098
						c-0.156,0-0.307-0.023-0.454-0.07c-0.147-0.049-0.278-0.117-0.393-0.207c-0.115-0.09-0.206-0.199-0.274-0.326
						s-0.102-0.271-0.1-0.432h0.806c0.008,0.127,0.049,0.229,0.122,0.303c0.073,0.074,0.169,0.113,0.289,0.113
						c0.079,0,0.146-0.018,0.198-0.049c0.053-0.031,0.094-0.074,0.125-0.129c0.031-0.057,0.052-0.119,0.064-0.193
						c0.012-0.072,0.018-0.15,0.018-0.23c0-0.086-0.009-0.164-0.028-0.232c-0.02-0.068-0.049-0.125-0.088-0.174
						c-0.04-0.047-0.091-0.084-0.154-0.111c-0.063-0.025-0.138-0.039-0.226-0.039c-0.057,0-0.108,0.006-0.154,0.018
						c-0.045,0.01-0.085,0.025-0.12,0.043c-0.034,0.018-0.063,0.037-0.087,0.059s-0.043,0.041-0.06,0.063L65.593,90.536z"/>
					<path style="fill:#4E5156;" d="M69.638,90.536l0.213-1.775h2.03v0.625h-1.377l-0.079,0.689c0.02-0.01,0.046-0.023,0.079-0.037
						c0.033-0.016,0.072-0.029,0.117-0.043c0.044-0.014,0.092-0.023,0.143-0.033c0.051-0.008,0.104-0.012,0.16-0.012
						c0.172,0,0.324,0.025,0.458,0.076c0.134,0.053,0.246,0.127,0.337,0.227c0.09,0.1,0.159,0.223,0.207,0.367
						s0.071,0.311,0.071,0.496c0,0.148-0.023,0.295-0.072,0.434c-0.049,0.141-0.122,0.266-0.221,0.373
						c-0.099,0.109-0.224,0.197-0.375,0.262c-0.15,0.064-0.33,0.098-0.536,0.098c-0.156,0-0.308-0.023-0.455-0.07
						c-0.146-0.049-0.277-0.117-0.393-0.207c-0.114-0.09-0.206-0.199-0.274-0.326s-0.102-0.271-0.1-0.432h0.807
						c0.008,0.127,0.048,0.229,0.121,0.303s0.17,0.113,0.289,0.113c0.079,0,0.146-0.018,0.198-0.049
						c0.052-0.031,0.094-0.074,0.125-0.129c0.031-0.057,0.053-0.119,0.064-0.193c0.012-0.072,0.018-0.15,0.018-0.23
						c0-0.086-0.01-0.164-0.028-0.232c-0.02-0.068-0.049-0.125-0.089-0.174c-0.039-0.047-0.091-0.084-0.153-0.111
						c-0.063-0.025-0.138-0.039-0.226-0.039c-0.058,0-0.108,0.006-0.154,0.018c-0.045,0.01-0.085,0.025-0.119,0.043
						s-0.063,0.037-0.087,0.059c-0.023,0.021-0.044,0.041-0.06,0.063L69.638,90.536z"/>
					<path style="fill:#4E5156;" d="M74.763,89.688c0,0.17-0.041,0.318-0.125,0.447c-0.083,0.129-0.198,0.232-0.345,0.311
						c0.166,0.08,0.297,0.191,0.394,0.332c0.098,0.141,0.146,0.307,0.146,0.5c0,0.166-0.03,0.313-0.091,0.438
						c-0.06,0.125-0.144,0.23-0.25,0.314s-0.233,0.146-0.382,0.189c-0.147,0.041-0.309,0.063-0.481,0.063
						c-0.176,0-0.337-0.021-0.486-0.063c-0.148-0.043-0.276-0.105-0.385-0.189s-0.193-0.189-0.256-0.314
						c-0.062-0.125-0.093-0.271-0.093-0.438c0-0.096,0.013-0.186,0.038-0.27s0.063-0.162,0.11-0.232
						c0.048-0.068,0.105-0.133,0.173-0.188c0.067-0.057,0.144-0.104,0.228-0.143c-0.147-0.078-0.264-0.182-0.349-0.311
						c-0.084-0.129-0.126-0.277-0.126-0.447c0-0.158,0.028-0.299,0.085-0.42c0.056-0.121,0.135-0.225,0.236-0.307
						c0.101-0.082,0.221-0.145,0.359-0.188c0.14-0.043,0.292-0.063,0.457-0.063c0.167,0,0.32,0.02,0.461,0.063
						c0.14,0.043,0.26,0.105,0.361,0.188c0.101,0.082,0.18,0.186,0.236,0.307C74.735,89.39,74.763,89.53,74.763,89.688z
						 M74.027,91.214c0-0.143-0.037-0.254-0.111-0.33c-0.074-0.078-0.172-0.115-0.292-0.115c-0.121,0-0.219,0.037-0.294,0.115
						c-0.074,0.076-0.112,0.188-0.112,0.33c0,0.07,0.011,0.133,0.03,0.188c0.02,0.057,0.048,0.104,0.083,0.143
						c0.036,0.037,0.079,0.066,0.131,0.088c0.051,0.02,0.106,0.031,0.167,0.031c0.119,0,0.215-0.041,0.288-0.119
						C73.99,91.464,74.027,91.354,74.027,91.214z M73.958,89.731c0-0.123-0.028-0.221-0.085-0.293
						c-0.057-0.07-0.141-0.107-0.252-0.107c-0.108,0-0.19,0.035-0.247,0.107c-0.056,0.07-0.084,0.168-0.084,0.293
						s0.028,0.225,0.086,0.301c0.057,0.076,0.142,0.115,0.253,0.115c0.109,0,0.191-0.039,0.246-0.115
						C73.93,89.956,73.958,89.856,73.958,89.731z"/>
					<path style="fill:#4E5156;" d="M77.592,89.688c0,0.17-0.041,0.318-0.125,0.447c-0.083,0.129-0.198,0.232-0.345,0.311
						c0.166,0.08,0.297,0.191,0.394,0.332c0.098,0.141,0.146,0.307,0.146,0.5c0,0.166-0.03,0.313-0.091,0.438
						c-0.06,0.125-0.144,0.23-0.25,0.314s-0.233,0.146-0.382,0.189c-0.147,0.041-0.309,0.063-0.481,0.063
						c-0.176,0-0.337-0.021-0.486-0.063c-0.148-0.043-0.276-0.105-0.385-0.189s-0.193-0.189-0.256-0.314
						c-0.062-0.125-0.093-0.271-0.093-0.438c0-0.096,0.013-0.186,0.038-0.27s0.063-0.162,0.11-0.232
						c0.048-0.068,0.105-0.133,0.173-0.188c0.067-0.057,0.144-0.104,0.228-0.143c-0.147-0.078-0.264-0.182-0.349-0.311
						c-0.084-0.129-0.126-0.277-0.126-0.447c0-0.158,0.028-0.299,0.085-0.42c0.056-0.121,0.135-0.225,0.236-0.307
						c0.101-0.082,0.221-0.145,0.359-0.188c0.14-0.043,0.292-0.063,0.457-0.063c0.167,0,0.32,0.02,0.461,0.063
						c0.14,0.043,0.26,0.105,0.361,0.188c0.101,0.082,0.18,0.186,0.236,0.307C77.564,89.39,77.592,89.53,77.592,89.688z
						 M76.856,91.214c0-0.143-0.037-0.254-0.111-0.33c-0.074-0.078-0.172-0.115-0.292-0.115c-0.121,0-0.219,0.037-0.294,0.115
						c-0.074,0.076-0.112,0.188-0.112,0.33c0,0.07,0.011,0.133,0.03,0.188c0.02,0.057,0.048,0.104,0.083,0.143
						c0.036,0.037,0.079,0.066,0.131,0.088c0.051,0.02,0.106,0.031,0.167,0.031c0.119,0,0.215-0.041,0.288-0.119
						C76.819,91.464,76.856,91.354,76.856,91.214z M76.787,89.731c0-0.123-0.028-0.221-0.085-0.293
						c-0.057-0.07-0.141-0.107-0.252-0.107c-0.108,0-0.19,0.035-0.247,0.107c-0.056,0.07-0.084,0.168-0.084,0.293
						s0.028,0.225,0.086,0.301c0.057,0.076,0.142,0.115,0.253,0.115c0.109,0,0.191-0.039,0.246-0.115
						C76.759,89.956,76.787,89.856,76.787,89.731z"/>
					<path style="fill:#4E5156;" d="M80.494,89.19l-1.298,3.045h-0.85l1.3-2.854h-1.655v-0.621h2.503V89.19z"/>
					<path style="fill:#4E5156;" d="M82.173,90.536l0.213-1.775h2.03v0.625H83.04l-0.079,0.689c0.02-0.01,0.046-0.023,0.079-0.037
						c0.033-0.016,0.072-0.029,0.117-0.043c0.044-0.014,0.092-0.023,0.143-0.033c0.051-0.008,0.104-0.012,0.16-0.012
						c0.172,0,0.324,0.025,0.458,0.076c0.134,0.053,0.246,0.127,0.337,0.227c0.09,0.1,0.159,0.223,0.207,0.367
						s0.071,0.311,0.071,0.496c0,0.148-0.023,0.295-0.072,0.434c-0.049,0.141-0.122,0.266-0.221,0.373
						c-0.099,0.109-0.224,0.197-0.375,0.262c-0.15,0.064-0.33,0.098-0.536,0.098c-0.156,0-0.308-0.023-0.455-0.07
						c-0.146-0.049-0.277-0.117-0.393-0.207c-0.114-0.09-0.206-0.199-0.274-0.326s-0.102-0.271-0.1-0.432h0.807
						c0.008,0.127,0.048,0.229,0.121,0.303s0.17,0.113,0.289,0.113c0.079,0,0.146-0.018,0.198-0.049
						c0.052-0.031,0.094-0.074,0.125-0.129c0.031-0.057,0.053-0.119,0.064-0.193c0.012-0.072,0.018-0.15,0.018-0.23
						c0-0.086-0.01-0.164-0.028-0.232c-0.02-0.068-0.049-0.125-0.089-0.174c-0.039-0.047-0.091-0.084-0.153-0.111
						c-0.063-0.025-0.138-0.039-0.226-0.039c-0.058,0-0.108,0.006-0.154,0.018c-0.045,0.01-0.085,0.025-0.119,0.043
						s-0.063,0.037-0.087,0.059c-0.023,0.021-0.044,0.041-0.06,0.063L82.173,90.536z"/>
					<path style="fill:#4E5156;" d="M86.897,88.712v0.631h-0.043c-0.137,0-0.266,0.018-0.388,0.051s-0.23,0.084-0.325,0.152
						c-0.096,0.066-0.177,0.152-0.242,0.254c-0.066,0.102-0.111,0.221-0.135,0.359c0.081-0.08,0.178-0.145,0.292-0.193
						c0.113-0.049,0.245-0.074,0.395-0.074c0.159,0,0.3,0.031,0.423,0.092c0.122,0.063,0.225,0.146,0.309,0.254
						c0.083,0.107,0.146,0.232,0.189,0.377s0.064,0.303,0.064,0.471c0,0.17-0.03,0.328-0.091,0.473
						c-0.061,0.146-0.145,0.273-0.251,0.381c-0.107,0.107-0.235,0.191-0.385,0.252c-0.148,0.061-0.312,0.092-0.487,0.092
						c-0.184,0-0.354-0.031-0.51-0.094s-0.292-0.154-0.406-0.275c-0.115-0.119-0.204-0.266-0.269-0.439s-0.097-0.369-0.097-0.59
						v-0.293c0-0.199,0.022-0.383,0.067-0.553c0.046-0.168,0.109-0.322,0.19-0.463c0.081-0.139,0.178-0.262,0.291-0.369
						c0.112-0.107,0.236-0.197,0.372-0.271c0.135-0.072,0.279-0.129,0.433-0.166c0.153-0.039,0.312-0.057,0.474-0.057H86.897z
						 M86.171,90.507c-0.106,0-0.195,0.025-0.267,0.074c-0.072,0.051-0.125,0.109-0.16,0.182v0.24c0,0.225,0.039,0.391,0.116,0.498
						s0.19,0.162,0.34,0.162c0.062,0,0.119-0.016,0.172-0.045c0.052-0.029,0.098-0.07,0.136-0.121
						c0.038-0.053,0.067-0.113,0.089-0.184s0.032-0.146,0.032-0.229c0-0.09-0.011-0.17-0.034-0.24
						c-0.023-0.072-0.055-0.133-0.096-0.184c-0.04-0.049-0.089-0.088-0.145-0.113C86.299,90.521,86.239,90.507,86.171,90.507z"/>
					<path style="fill:#4E5156;" d="M89.909,90.878h0.353v0.619h-0.353v0.738h-0.805v-0.738h-1.343l-0.048-0.49l1.391-2.238v-0.008
						h0.805V90.878z M88.479,90.878h0.625v-1.07l-0.05,0.082L88.479,90.878z"/>
					<path style="fill:#4E5156;" d="M92.738,90.878h0.353v0.619h-0.353v0.738h-0.805v-0.738H90.59l-0.048-0.49l1.391-2.238v-0.008
						h0.805V90.878z M91.308,90.878h0.625v-1.07l-0.05,0.082L91.308,90.878z"/>
				</g>
			</g>
			<g>
				<g>
					<g>
						<path style="fill-rule:evenodd;clip-rule:evenodd;fill:#FF6F00;" d="M54.407,76.591h2.834
							c-0.584-1.096-1.607-1.918-2.834-2.244V76.591z"/>
					</g>
					<g>
						<path style="fill-rule:evenodd;clip-rule:evenodd;fill:#FF6F00;" d="M53.928,74.245c-0.222-0.033-0.447-0.053-0.679-0.053
							c-1.73,0-3.231,0.973-3.99,2.398h4.669V74.245z"/>
					</g>
					<g>
						<path style="fill-rule:evenodd;clip-rule:evenodd;fill:#FF6F00;" d="M53.663,80.634h-4.499
							c0.723,1.533,2.278,2.598,4.086,2.598c0.14,0,0.276-0.008,0.413-0.02V80.634z"/>
					</g>
					<g>
						<path style="fill-rule:evenodd;clip-rule:evenodd;fill:#FF6F00;" d="M54.087,80.634v2.518
							c1.441-0.271,2.641-1.227,3.249-2.518H54.087z"/>
					</g>
					<g>
						<path style="fill-rule:evenodd;clip-rule:evenodd;fill:#FF6F00;" d="M57.705,77.974c-0.056-0.332-0.144-0.652-0.267-0.957
							h-1.436v0.957H57.705z"/>
					</g>
					<g>
						<path style="fill-rule:evenodd;clip-rule:evenodd;fill:#FF6F00;" d="M56.002,78.667v1.488h1.528
							c0.154-0.455,0.239-0.938,0.239-1.443c0-0.016-0.001-0.031-0.001-0.045H56.002z"/>
					</g>
					<g>
						<rect x="53.343" y="77.017" style="fill-rule:evenodd;clip-rule:evenodd;fill:#FF6F00;" width="2.233" height="3.139"/>
					</g>
					<g>
						<path style="fill-rule:evenodd;clip-rule:evenodd;fill:#FF6F00;" d="M50.897,78.56h-2.159c-0.002,0.051-0.008,0.1-0.008,0.152
							c0,0.506,0.087,0.988,0.239,1.443h1.928V78.56z"/>
					</g>
					<g>
						<path style="fill-rule:evenodd;clip-rule:evenodd;fill:#FF6F00;" d="M49.062,77.017c-0.143,0.354-0.239,0.729-0.29,1.117h2.77
							l-0.007,2.021h1.33v-3.139H49.062z"/>
					</g>
				</g>
			</g>
		</g>
	</g>
</g>
<g>
</g>
<g>
</g>
<g>
</g>
<g>
</g>
<g>
</g>
<g>
</g>
<g>
</g>
<g>
</g>
<g>
</g>
<g>
</g>
<g>
</g>
<g>
</g>
<g>
</g>
<g>
</g>
<g>
</g>
</svg>
